<?xml version="1.0" encoding="iso-8859-1"?>
<!-- Generator: Adobe Illustrator 19.0.0, SVG Export Plug-In . SVG Version: 6.00 Build 0)  -->
<svg version="1.1" id="Capa_1" xmlns="http://www.w3.org/2000/svg" xmlns:xlink="http://www.w3.org/1999/xlink" x="0px" y="0px"
	 viewBox="0 0 512 512" style="enable-background:new 0 0 512 512;" xml:space="preserve">
<g>
	<g>
		<path d="M312.819,127.058c-4.624-39.108-15.844-73.089-30.785-93.229C276.167,25.92,266.889,16.494,256,16.494
			c-10.889,0-20.166,9.427-26.034,17.334c-14.942,20.141-26.163,54.122-30.785,93.229c-4.932,41.731-1.816,83.96,8.777,118.913
			l34.811,114.867h26.463l34.811-114.867C314.635,211.018,317.751,168.787,312.819,127.058z"/>
	</g>
</g>
<g>
	<g>
		<path d="M405.508,84.829c-14.329-26.096-35.103-48.034-60.077-63.446C328.901,11.183,310.664,3.982,291.529,0
			c4.908,4.059,9.879,9.234,14.769,15.826c17.989,24.248,31.302,63.498,36.525,107.685c5.411,45.771,1.907,92.374-9.866,131.222
			l-32.155,106.104h34.001l65.116-102.378c17.161-26.982,26.457-57.719,26.881-88.889
			C427.199,140.227,419.837,110.925,405.508,84.829z"/>
	</g>
</g>
<g>
	<g>
		<path d="M205.701,15.828C210.592,9.235,215.564,4.059,220.472,0c-19.135,3.981-37.373,11.183-53.902,21.383
			c-24.974,15.412-45.748,37.351-60.077,63.446c-14.329,26.094-21.692,55.398-21.293,84.742c0.424,31.169,9.72,61.906,26.881,88.889
			l65.116,102.378h34.001l-32.155-106.103c-11.773-38.848-15.277-85.45-9.867-131.222C174.4,79.326,187.712,40.076,205.701,15.828z"
			/>
	</g>
</g>
<g>
	<g>
		<polygon points="287.019,391.051 274.981,431.391 237.019,431.391 224.981,391.051 193.451,391.051 210.656,448.703 210.656,512 
			301.344,512 301.344,448.705 318.549,391.051 		"/>
	</g>
</g>
<g>
</g>
<g>
</g>
<g>
</g>
<g>
</g>
<g>
</g>
<g>
</g>
<g>
</g>
<g>
</g>
<g>
</g>
<g>
</g>
<g>
</g>
<g>
</g>
<g>
</g>
<g>
</g>
<g>
</g>
</svg>
