<svg id="Capa_1" enable-background="new 0 0 512 512" height="512" viewBox="0 0 512 512" width="512" xmlns="http://www.w3.org/2000/svg"><g><path d="m281 211c0-13.785-11.215-25-25-25s-25 11.215-25 25v15h50z"/><path d="m256 131c-68.925 0-125 56.075-125 125s56.075 125 125 125 125-56.075 125-125-56.075-125-125-125zm75 175c0 19.299-15.701 35-35 35h-80c-19.299 0-35-15.701-35-35v-45c0-13.933 8.186-25.988 20-31.616v-18.384c0-30.327 24.673-55 55-55s55 24.673 55 55v18.384c11.814 5.628 20 17.682 20 31.616z"/><path d="m296 256h-80c-2.757 0-5 2.243-5 5v45c0 2.757 2.243 5 5 5h80c2.757 0 5-2.243 5-5v-45c0-2.757-2.243-5-5-5z"/><path d="m497 201h-22.785c-5.339-21.312-13.722-41.546-25.026-60.407l16.115-16.115c5.858-5.858 5.858-15.355 0-21.213l-56.569-56.569c-5.858-5.858-15.355-5.858-21.213 0l-16.115 16.115c-18.859-11.304-39.096-19.687-60.407-25.026v-22.785c0-8.284-6.716-15-15-15h-80c-8.284 0-15 6.716-15 15v22.785c-21.311 5.338-41.548 13.722-60.407 25.026l-16.115-16.115c-5.858-5.858-15.355-5.858-21.213 0l-56.568 56.569c-5.858 5.858-5.858 15.355 0 21.213l16.114 16.115c-11.304 18.86-19.687 39.094-25.026 60.407h-22.785c-8.284 0-15 6.716-15 15v80c0 8.284 6.716 15 15 15h22.785c5.339 21.313 13.722 41.547 25.026 60.407l-16.115 16.115c-5.858 5.858-5.858 15.355 0 21.213l56.569 56.568c5.858 5.858 15.355 5.858 21.213 0l16.115-16.115c18.86 11.303 39.097 19.687 60.407 25.025v22.787c0 8.284 6.716 15 15 15h80c8.284 0 15-6.716 15-15v-22.786c21.31-5.338 41.547-13.722 60.407-25.025l16.115 16.114c5.858 5.858 15.355 5.858 21.213 0l56.569-56.568c5.858-5.858 5.858-15.355 0-21.213l-16.115-16.115c11.304-18.861 19.687-39.095 25.025-60.407h22.786c8.284 0 15-6.716 15-15v-80c0-8.284-6.716-15-15-15zm-241 210c-85.467 0-155-69.533-155-155s69.533-155 155-155 155 69.533 155 155-69.533 155-155 155z"/></g></svg>