<svg height="512pt" viewBox="0 0 512 512" width="512pt" xmlns="http://www.w3.org/2000/svg"><path d="m414.890625 121.367188c-19.757813-70.417969-84.742187-121.367188-158.890625-121.367188s-139.132812 50.949219-158.890625 121.367188c-53.761719 4.523437-97.109375 49.730468-97.109375 104.632812 0 57.890625 48.109375 105 106 105h90v-62.5625c-10.429688-3.664062-19.308594-11.132812-24.695312-21.226562-7.839844-14.691407-6.976563-32.386719 2.253906-46.1875l45.96875-61.347657c7.394531-11.191406 21.398437-18.675781 36.472656-18.675781s29.078125 7.484375 37.441406 20.039062l44.035156 58.636719c10.207032 15.175781 11.058594 32.898438 3.191407 47.578125-5.375 10.0625-14.253907 17.503906-24.667969 21.183594v62.5625h90c57.890625 0 106-47.109375 106-105 0-54.902344-43.347656-100.109375-97.109375-104.632812zm0 0"/><path d="m210.992188 420.996094c-5.539063 0-10.621094 3.050781-13.230469 7.925781-2.589844 4.863281-2.3125 10.8125.75 15.398437l45.007812 61c2.78125 4.171876 7.46875 6.679688 12.480469 6.679688 5.007812 0 9.695312-2.507812 12.480469-6.679688l45-61c3.097656-4.652343 3.324219-10.585937.746093-15.398437-2.609374-4.875-7.691406-7.925781-13.230468-7.925781h-15v-180h15c5.539062 0 10.621094-3.046875 13.230468-7.921875 2.578126-4.8125 2.351563-10.746094-.746093-15.398438l-45-60c-2.785157-4.171875-7.472657-6.679687-12.480469-6.679687-5.011719 0-9.699219 2.507812-12.480469 6.679687l-45.007812 60c-3.0625 4.585938-3.339844 10.535157-.75 15.398438 2.609375 4.875 7.691406 7.921875 13.230469 7.921875h15.007812v180zm0 0"/></svg>