<svg id="Layer_1" enable-background="new 0 0 508.057 508.057" height="512" viewBox="0 0 508.057 508.057" width="512" xmlns="http://www.w3.org/2000/svg"><g><path d="m353.134 139.93c-3.842 0-7.682 1.462-10.607 4.387-2.833 2.833-4.393 6.6-4.393 10.606s1.56 7.773 4.393 10.607c5.85 5.849 15.365 5.849 21.213 0 2.833-2.833 4.394-6.6 4.394-10.607s-1.561-7.773-4.394-10.607c-2.924-2.923-6.765-4.386-10.606-4.386z"/><path d="m392.504 176.7c-1.99 3.602-4.499 6.991-7.551 10.043v.001c-8.773 8.771-20.296 13.158-31.819 13.158s-23.047-4.387-31.819-13.158c-17.546-17.546-17.546-46.095 0-63.641 17.545-17.545 46.094-17.544 63.639 0 6.321 6.321 10.352 14.073 12.119 22.222 16.081-4.231 33.705-15.013 48.891-30.197 3.259-3.26 6.248-6.569 9.001-9.896l-8.33-43.809-61.129-11.623 17.318 3.293c28.563-23.643 58.418-28.749 69.655-17.515 11.232 11.234 6.127 41.09-17.516 69.654l6.885 36.206c1.799-1.652 3.577-3.348 5.327-5.098 41.633-41.634 53.28-95.211 26.517-121.976-26.765-26.763-80.342-15.116-121.975 26.518-1.737 1.736-3.44 3.517-5.101 5.326l-80.397-15.288-286.219 286.218 190.919 190.919 286.219-286.218-15.289-80.4c-21.56 19.805-46.358 32.439-69.345 35.261zm-87.486 89.98-21.213 21.213-31.82-31.82c-5.848-5.849-15.364-5.848-21.213 0-5.848 5.849-5.848 15.365.001 21.214 8.499 8.499 13.18 19.8 13.18 31.819 0 12.021-4.681 23.321-13.181 31.82-8.499 8.498-19.799 13.18-31.819 13.18-6.83 0-13.425-1.516-19.408-4.38l-23.018 23.02-21.213-21.213 21.213-21.214-21.213-21.213 21.213-21.213 31.82 31.819c2.833 2.833 6.6 4.393 10.607 4.393 4.006 0 7.773-1.56 10.606-4.393s4.394-6.6 4.394-10.607c0-4.006-1.561-7.773-4.394-10.606-17.545-17.546-17.545-46.095 0-63.64 13.828-13.828 34.485-16.749 51.208-8.782l23.038-23.038 21.213 21.213-21.213 21.214z"/></g></svg>